<svg xmlns="http://www.w3.org/2000/svg" width="16.052" height="16.834" viewBox="0 0 16.052 16.834"><defs><style>.a{fill:#b2b2b2;}</style></defs><g transform="translate(-14.926 0)"><g transform="translate(14.926 0)"><g transform="translate(0 0)"><path class="a" d="M19.158,16.835a4.232,4.232,0,0,1-2.993-7.226l8.7-8.7a3.1,3.1,0,0,1,4.382,4.382l-8.031,8.03-.107.1a1.749,1.749,0,0,1-2.461-.009l-.016-.016a1.746,1.746,0,0,1,0-2.466l4.172-4.172a.416.416,0,1,1,.588.588L19.228,11.51a.914.914,0,0,0,0,1.293l.016.016a.914.914,0,0,0,1.289,0L28.662,4.7a2.266,2.266,0,0,0-3.205-3.205l-8.7,8.7a3.4,3.4,0,1,0,4.81,4.811l8.7-8.7a.416.416,0,1,1,.588.588l-8.7,8.7A4.221,4.221,0,0,1,19.158,16.835Z" transform="translate(-14.926 0)"/></g></g></g></svg>