<svg xmlns="http://www.w3.org/2000/svg" width="132.331" height="28.465" viewBox="0 0 132.331 28.465"><defs><style>.a{fill:#707070;}</style></defs><g transform="translate(-365.22 -295.351)"><path class="a" d="M164.6,332.222v-3.19H159.48l5.969-17.722H154.677v3.19H160.3l-6.079,17.722Z" transform="translate(211 -12.383)"/><path class="a" d="M193.885,330.588a6.123,6.123,0,0,0,8.581,0q1.389-1.747,1.386-5.43V311.31h-3.9v13.876a7.574,7.574,0,0,1-.4,3,1.418,1.418,0,0,1-1.382.808,1.393,1.393,0,0,1-1.365-.8,7.721,7.721,0,0,1-.4-3.006V311.31h-3.9v13.848Q192.514,328.837,193.885,330.588Z" transform="translate(186.282 -12.383)"/><path class="a" d="M241.17,325.344a7.713,7.713,0,0,1-.73,2.836,1.563,1.563,0,0,1-1.389.936q-1.159,0-1.638-1.517a21.536,21.536,0,0,1-.479-5.575,22.291,22.291,0,0,1,.5-5.774c.333-1.063.9-1.577,1.7-1.577a1.539,1.539,0,0,1,1.372.741,5.431,5.431,0,0,1,.617,2.371l3.629-1.216a6.9,6.9,0,0,0-1.879-3.9,5.781,5.781,0,0,0-8.439,1.3q-1.535,2.577-1.538,8.056,0,5.285,1.467,7.84a4.835,4.835,0,0,0,4.487,2.559,5.423,5.423,0,0,0,3.973-1.492,7.513,7.513,0,0,0,1.956-4.335Z" transform="translate(160.214 -12.435)"/><path class="a" d="M278.435,332.222V320.88h.195l3.544,11.342h4.445L282.291,320.6l4.236-9.286h-4.253l-3.629,9.215h-.195V311.31h-3.9v20.912Z" transform="translate(133.32 -12.383)"/><path class="a" d="M322.031,308.784a3.846,3.846,0,0,1-.393-1.6,2.311,2.311,0,0,1,.574-1.613,1.868,1.868,0,0,1,1.439-.634,1.772,1.772,0,0,1,1.326.574,1.946,1.946,0,0,1,.556,1.418A3.506,3.506,0,0,1,325,308.7a10.764,10.764,0,0,1-1.719,2.105A11.055,11.055,0,0,1,322.031,308.784Zm2.1,15.695a3.236,3.236,0,0,1-3.867-.8,3.846,3.846,0,0,1-1.028-2.7,4.64,4.64,0,0,1,.613-2.4,5.94,5.94,0,0,1,1.9-1.882l3.9,6.759A7.194,7.194,0,0,1,324.132,324.479Zm9.846,4.774-2.63-4.608a20.429,20.429,0,0,0,1.687-1.613,15.876,15.876,0,0,0,1.382-1.691l-3.19-3.225a13.152,13.152,0,0,1-.989,1.382,15.833,15.833,0,0,1-1.141,1.269l-3.8-6.607a12.448,12.448,0,0,0,3.4-3.3,6.429,6.429,0,0,0,1.191-3.59,5.832,5.832,0,0,0-1.715-4.388,6.212,6.212,0,0,0-4.523-1.659,6.543,6.543,0,0,0-4.576,1.669A5.317,5.317,0,0,0,317.228,307a8.153,8.153,0,0,0,.557,2.814,21.131,21.131,0,0,0,1.8,3.544,11.526,11.526,0,0,0-4.062,3.665,8.411,8.411,0,0,0-1.358,4.675,7.939,7.939,0,0,0,2.169,5.721,7.392,7.392,0,0,0,5.586,2.265,7.8,7.8,0,0,0,2.9-.6,12.267,12.267,0,0,0,2.956-1.719l1.131,1.882Z" transform="translate(107.744 -5.87)"/><path class="a" d="M380.409,314.418h.5a3.357,3.357,0,0,1,2.258.684,2.435,2.435,0,0,1,.79,1.949,2.481,2.481,0,0,1-.758,1.935,3.065,3.065,0,0,1-2.127.684h-.354a2.079,2.079,0,0,1-.291-.032Zm0,8.234h.418a3.7,3.7,0,0,1,2.605.826,3.166,3.166,0,0,1,.89,2.424,2.942,2.942,0,0,1-.9,2.311,3.7,3.7,0,0,1-2.545.8H380.4Zm1.418,9.57a6.706,6.706,0,0,0,4.771-1.638,5.745,5.745,0,0,0,1.747-4.416,5.561,5.561,0,0,0-1.014-3.452,5.345,5.345,0,0,0-3.006-1.879,4.608,4.608,0,0,0,2.711-1.524,4.448,4.448,0,0,0,.95-2.938,4.551,4.551,0,0,0-1.6-3.768,7.349,7.349,0,0,0-4.668-1.3h-5.21v20.912Z" transform="translate(67.499 -12.383)"/><path class="a" d="M427.371,332.222v-3.19h-4.608v-6.025h4.608v-3.544h-4.608V314.5h4.608v-3.19H418.51v20.912Z" transform="translate(40.385 -12.383)"/><path class="a" d="M457.4,332.222V322.3h.393l3.544,9.924h4.033l-3.7-9.768a4.516,4.516,0,0,0,2.481-1.9,6.2,6.2,0,0,0,.868-3.374,5.581,5.581,0,0,0-1.662-4.384,7.108,7.108,0,0,0-4.9-1.482H453.49v20.912Zm0-17.722h.418a3.681,3.681,0,0,1,2.481.734,2.69,2.69,0,0,1,.847,2.155,2.835,2.835,0,0,1-.861,2.212,3.446,3.446,0,0,1-2.417.787h-.234a2.334,2.334,0,0,0-.237,0Z" transform="translate(17.804 -12.383)"/><path class="a" d="M501.765,323.065V324.9a7.51,7.51,0,0,1-.514,3.119,1.608,1.608,0,0,1-1.467,1.092q-1.155,0-1.634-1.517a21.292,21.292,0,0,1-.464-5.575,22.29,22.29,0,0,1,.5-5.774q.5-1.574,1.691-1.577a1.538,1.538,0,0,1,1.205.518,3.685,3.685,0,0,1,.709,1.641l3.477-1.216a6.223,6.223,0,0,0-1.932-3.19,5.338,5.338,0,0,0-3.371-1.021,5.142,5.142,0,0,0-4.76,2.577q-1.528,2.577-1.531,8.056,0,5.285,1.46,7.84a4.8,4.8,0,0,0,4.47,2.559,5.281,5.281,0,0,0,4.519-2.127,10.151,10.151,0,0,0,1.567-6.128v-4.289h-6.38v3.19Z" transform="translate(-8.135 -12.441)"/></g></svg>