<svg xmlns="http://www.w3.org/2000/svg" width="54.718" height="21.066" viewBox="0 0 54.718 21.066"><g transform="translate(-365.22 -298.927)"><path d="M164.6,332.222v-3.19H159.48l5.969-17.722H154.677v3.19H160.3l-6.079,17.722Z" transform="translate(211 -12.383)"/><path d="M193.885,330.588a6.123,6.123,0,0,0,8.581,0q1.389-1.747,1.386-5.43V311.31h-3.9v13.876a7.574,7.574,0,0,1-.4,3,1.418,1.418,0,0,1-1.382.808,1.393,1.393,0,0,1-1.365-.8,7.721,7.721,0,0,1-.4-3.006V311.31h-3.9v13.848Q192.514,328.837,193.885,330.588Z" transform="translate(186.282 -12.383)"/><path d="M241.17,325.344a7.713,7.713,0,0,1-.73,2.836,1.563,1.563,0,0,1-1.389.936q-1.159,0-1.638-1.517a21.536,21.536,0,0,1-.479-5.575,22.291,22.291,0,0,1,.5-5.774c.333-1.063.9-1.577,1.7-1.577a1.539,1.539,0,0,1,1.372.741,5.431,5.431,0,0,1,.617,2.371l3.629-1.216a6.9,6.9,0,0,0-1.879-3.9,5.781,5.781,0,0,0-8.439,1.3q-1.535,2.577-1.538,8.056,0,5.285,1.467,7.84a4.835,4.835,0,0,0,4.487,2.559,5.423,5.423,0,0,0,3.973-1.492,7.513,7.513,0,0,0,1.956-4.335Z" transform="translate(160.214 -12.435)"/><path d="M278.435,332.222V320.88h.195l3.544,11.342h4.445L282.291,320.6l4.236-9.286h-4.253l-3.629,9.215h-.195V311.31h-3.9v20.912Z" transform="translate(133.32 -12.383)"/></g></svg>