<svg xmlns="http://www.w3.org/2000/svg" width="98.561" height="50.13" viewBox="0 0 98.561 50.13"><g transform="translate(0)"><path d="M2.2,13.6H6.972L9.879,24.679,13.06,13.6h3.73L19.7,24.679,22.823,13.6H27.21L22,30.054H17.5l-2.8-10.311L11.689,30.054H7.136Z" transform="translate(-0.993 -6.141)"/><path d="M51.4,0h4.552V10.092a5.728,5.728,0,0,1,5.375-3.017c3.236,0,5.54,1.975,5.54,6.362V23.913H62.315V14.1c0-2.249-.878-3.291-2.907-3.291a3.272,3.272,0,0,0-3.455,3.62v9.489H51.4S51.4,0,51.4,0Z" transform="translate(-23.208)"/><path d="M84.6,2.968A2.484,2.484,0,0,1,87.178.5a2.452,2.452,0,0,1,2.578,2.468,2.58,2.58,0,0,1-5.156,0Zm.329,4.717h4.552V24.139H84.929Z" transform="translate(-38.199 -0.226)"/><path d="M98.984,22.238V13.9H96.9V10.665h2.084V7.1h4.552v3.565h3.455V13.9h-3.455v7.953c0,1.316.658,1.975,1.81,1.975A4.357,4.357,0,0,0,107.1,23.5v3.51a8.224,8.224,0,0,1-2.8.439C100.849,27.448,98.984,25.693,98.984,22.238Z" transform="translate(-43.753 -3.206)"/><path d="M118,21.73v-.274a8.149,8.149,0,0,1,8.447-8.556c4.278,0,8.008,2.468,8.008,8.392v1.261H122.607c.11,2.742,1.591,4.333,4.114,4.333,2.084,0,3.126-.932,3.455-2.3h4.333c-.548,3.565-3.346,5.54-7.9,5.54C121.62,30.122,118,27,118,21.73Zm12.066-1.975c-.165-2.468-1.426-3.675-3.565-3.675-2.029,0-3.455,1.371-3.784,3.675Z" transform="translate(-53.28 -5.825)"/><path d="M0,62.037H4.278c.165,1.481.878,2.358,2.852,2.358,1.755,0,2.578-.658,2.578-1.81S8.721,61,6.362,60.611C1.975,59.953.274,58.692.274,55.456.274,52,3.4,50.3,6.8,50.3c3.675,0,6.417,1.316,6.8,5.1H9.434c-.274-1.371-.987-1.975-2.578-1.975-1.481,0-2.3.713-2.3,1.7,0,1.042.768,1.426,3.181,1.81,4.114.6,6.417,1.645,6.417,5.156,0,3.565-2.578,5.43-6.911,5.43C2.742,67.577.165,65.6,0,62.037Z" transform="translate(0 -22.712)"/><path d="M41.3,64.605a6.106,6.106,0,0,1-5.265,3.017c-4,0-7.13-2.852-7.13-8.337v-.274c0-5.43,3.126-8.611,7.24-8.611a5.5,5.5,0,0,1,5.211,2.852V50.784H45.9v22.1H41.35V64.605Zm.11-5.485v-.274c0-3.291-1.426-4.936-3.949-4.936-2.578,0-3.949,1.755-3.949,4.991v.274c0,3.291,1.591,4.881,3.839,4.881C39.76,64.057,41.405,62.466,41.405,59.121Z" transform="translate(-13.049 -22.757)"/><path d="M65.4,61.74V51.1h4.552v9.982c0,2.249.932,3.291,2.852,3.291a3.3,3.3,0,0,0,3.455-3.62V51.1h4.552V67.554H76.26V64.976a5.511,5.511,0,0,1-5.211,2.907C67.813,67.938,65.4,66.018,65.4,61.74Z" transform="translate(-29.53 -23.073)"/><path d="M97.6,62.686c0-3.839,3.51-5.265,8.556-5.265h1.865v-.658c0-1.975-.6-3.017-2.688-3.017a2.465,2.465,0,0,0-2.8,2.3H98.2c.274-3.894,3.346-5.649,7.4-5.649s6.911,1.645,6.911,6.088v10.75h-4.443V65.264a5.621,5.621,0,0,1-4.991,2.3C100.123,67.622,97.6,66.2,97.6,62.686Zm10.421-1.152V60.163h-1.755c-2.633,0-4.168.548-4.168,2.3,0,1.207.713,1.975,2.413,1.975C106.485,64.441,108.021,63.344,108.021,61.534Z" transform="translate(-44.069 -22.757)"/><path d="M130.5,50.874h4.552V54a5.444,5.444,0,0,1,5.32-3.4v4.278c-3.346-.055-5.32,1.1-5.32,4.223v8.227H130.5Z" transform="translate(-58.924 -22.847)"/><path d="M149.6,59.23v-.274a8.149,8.149,0,0,1,8.447-8.556c4.278,0,8.008,2.468,8.008,8.392v1.261H154.207c.11,2.742,1.591,4.333,4.114,4.333,2.084,0,3.126-.932,3.455-2.3h4.333c-.548,3.565-3.346,5.54-7.9,5.54C153.22,67.622,149.6,64.5,149.6,59.23Zm12.066-1.975c-.165-2.468-1.426-3.675-3.565-3.675-2.029,0-3.455,1.371-3.784,3.675Z" transform="translate(-67.548 -22.757)"/></g></svg>