<svg xmlns="http://www.w3.org/2000/svg" width="130.586" height="66.42" viewBox="0 0 130.586 66.42"><g transform="translate(0)"><path d="M2.2,13.6H8.522l3.851,14.679L16.588,13.6H21.53l3.851,14.679L29.523,13.6h5.814l-6.9,21.8H22.475L18.768,21.739l-4,13.662H8.74Z" transform="translate(-0.601 -3.717)"/><path d="M51.4,0h6.032V13.371a7.59,7.59,0,0,1,7.122-4c4.287,0,7.34,2.616,7.34,8.43v13.88H65.861V18.676c0-2.979-1.163-4.36-3.851-4.36-2.616,0-4.578,1.6-4.578,4.8V31.684H51.4S51.4,0,51.4,0Z" transform="translate(-14.048)"/><path d="M84.6,3.77A3.291,3.291,0,0,1,88.015.5a3.248,3.248,0,0,1,3.415,3.27,3.419,3.419,0,0,1-6.831,0Zm.436,6.25h6.032v21.8H85.036Z" transform="translate(-23.122 -0.137)"/><path d="M99.661,27.157V16.111H96.9V11.823h2.761V7.1h6.032v4.723h4.578v4.287h-4.578V26.648c0,1.744.872,2.616,2.4,2.616a5.772,5.772,0,0,0,2.325-.436v4.651a10.9,10.9,0,0,1-3.706.581C102.132,34.06,99.661,31.735,99.661,27.157Z" transform="translate(-26.484 -1.941)"/><path d="M118,24.6v-.363c0-6.9,4.869-11.336,11.191-11.336,5.668,0,10.61,3.27,10.61,11.118V25.69H124.1c.145,3.633,2.107,5.741,5.45,5.741,2.761,0,4.142-1.235,4.578-3.052h5.741c-.727,4.723-4.433,7.34-10.464,7.34C122.8,35.718,118,31.576,118,24.6Zm15.987-2.616c-.218-3.27-1.889-4.869-4.723-4.869-2.689,0-4.578,1.817-5.014,4.869Z" transform="translate(-32.251 -3.526)"/><path d="M0,65.851H5.668c.218,1.962,1.163,3.125,3.779,3.125,2.325,0,3.415-.872,3.415-2.4S11.554,64.47,8.43,63.962C2.616,63.09.363,61.418.363,57.131c0-4.578,4.142-6.831,8.648-6.831,4.869,0,8.5,1.744,9.011,6.758H12.5c-.363-1.817-1.308-2.616-3.415-2.616-1.962,0-3.052.945-3.052,2.253,0,1.381,1.017,1.889,4.215,2.4,5.45.8,8.5,2.18,8.5,6.831,0,4.723-3.415,7.194-9.156,7.194C3.633,73.191.218,70.575,0,65.851Z" transform="translate(0 -13.748)"/><path d="M45.323,69.221a8.09,8.09,0,0,1-6.976,4c-5.3,0-9.447-3.779-9.447-11.046v-.363c0-7.194,4.142-11.409,9.592-11.409,3.488,0,5.668,1.526,6.9,3.779v-3.27h6.032V80.194H45.4V69.221Zm.145-7.267v-.363c0-4.36-1.889-6.54-5.232-6.54-3.415,0-5.232,2.325-5.232,6.613v.363c0,4.36,2.107,6.468,5.087,6.468C43.288,68.495,45.468,66.387,45.468,61.954Z" transform="translate(-7.899 -13.775)"/><path d="M65.4,65.2V51.1h6.032V64.326c0,2.979,1.235,4.36,3.779,4.36s4.578-1.6,4.578-4.8V51.1H85.82V72.9H79.788V69.485a7.3,7.3,0,0,1-6.9,3.851C68.6,73.409,65.4,70.866,65.4,65.2Z" transform="translate(-17.875 -13.966)"/><path d="M97.6,66.678c0-5.087,4.651-6.976,11.336-6.976h2.471V58.83c0-2.616-.8-4-3.561-4-2.4,0-3.488,1.235-3.706,3.052H98.4c.363-5.159,4.433-7.485,9.81-7.485s9.156,2.18,9.156,8.066V72.709H111.48V70.093c-1.235,1.744-3.2,3.052-6.613,3.052C100.943,73.218,97.6,71.329,97.6,66.678Zm13.807-1.526V63.335h-2.325c-3.488,0-5.523.727-5.523,3.052,0,1.6.945,2.616,3.2,2.616C109.372,69,111.407,67.55,111.407,65.152Z" transform="translate(-26.675 -13.775)"/><path d="M130.5,50.963h6.032v4.142A7.213,7.213,0,0,1,143.58,50.6v5.668c-4.433-.073-7.049,1.453-7.049,5.6v10.9H130.5Z" transform="translate(-35.667 -13.83)"/><path d="M149.6,62.1v-.363c0-6.9,4.869-11.336,11.191-11.336,5.668,0,10.61,3.27,10.61,11.118V63.19H155.7c.145,3.633,2.107,5.741,5.45,5.741,2.761,0,4.142-1.235,4.578-3.052h5.741c-.727,4.723-4.433,7.34-10.464,7.34C154.4,73.218,149.6,69.076,149.6,62.1Zm15.987-2.616c-.218-3.27-1.889-4.869-4.723-4.869-2.689,0-4.578,1.817-5.014,4.869Z" transform="translate(-40.887 -13.775)"/></g></svg>